<svg id="svg" version="1.1" xmlns="http://www.w3.org/2000/svg" xmlns:xlink="http://www.w3.org/1999/xlink" width="400" height="396.1630695443645" viewBox="0, 0, 400,396.1630695443645"><g id="svgg"><path id="path0" d="M391.527 129.779 C 385.176 132.080,375.826 138.509,358.913 152.204 C 349.174 160.090,348.479 160.339,340.215 158.916 C 334.080 157.860,312.562 155.483,306.290 155.168 C 301.942 154.950,300.224 155.431,297.219 157.709 C 295.997 158.635,293.563 160.257,291.809 161.313 C 290.056 162.370,288.571 163.383,288.511 163.564 C 288.371 163.985,293.779 166.112,305.630 170.296 C 320.609 175.584,326.834 178.202,326.085 178.897 C 325.851 179.115,321.596 182.753,316.630 186.983 L 307.601 194.673 305.439 194.882 C 291.858 196.199,287.520 197.312,282.968 200.646 C 279.037 203.525,279.263 203.699,288.569 204.954 C 303.073 206.909,303.997 207.530,306.058 216.714 C 306.600 219.128,307.131 222.527,307.239 224.267 C 307.532 229.012,309.071 229.028,313.785 224.334 L 316.067 222.062 317.017 217.106 C 317.582 214.152,317.997 210.859,318.043 208.953 C 318.085 207.194,318.196 205.450,318.289 205.076 C 318.485 204.287,339.527 190.568,340.542 190.568 C 342.233 190.568,347.261 201.918,352.707 218.030 C 355.538 226.404,355.535 226.402,359.280 224.439 C 365.113 221.382,367.532 218.678,367.263 215.515 C 367.151 214.192,366.910 211.023,366.728 208.473 C 365.873 196.501,363.485 178.891,362.291 175.754 C 361.830 174.543,361.921 174.430,365.787 171.366 C 379.423 160.563,396.706 142.411,399.260 136.211 C 401.514 130.741,397.677 127.550,391.527 129.779 M349.316 146.996 C 346.598 147.973,340.525 152.414,340.528 153.423 C 340.529 153.541,341.947 153.972,343.680 154.381 C 347.999 155.401,348.116 155.359,356.919 149.625 C 360.191 147.494,353.941 145.333,349.316 146.996 M194.724 167.957 C 194.140 168.251,193.065 170.075,190.724 174.747 C 178.910 198.328,166.141 211.003,140.771 224.331 C 136.565 226.541,136.673 226.351,139.009 227.431 C 142.326 228.964,143.278 229.099,150.440 229.057 C 175.209 228.911,196.231 220.076,213.936 202.371 C 221.658 194.649,221.909 193.776,217.287 190.732 C 211.355 186.826,206.881 182.087,201.159 173.648 C 197.110 167.679,196.446 167.092,194.724 167.957 M3.261 170.206 C -2.132 179.104,-0.941 201.825,5.811 218.862 C 19.270 252.823,60.160 278.604,110.791 285.053 C 174.786 293.203,243.557 277.438,296.483 242.487 C 304.163 237.414,304.140 237.487,298.901 234.807 C 292.683 231.627,289.067 227.429,285.655 219.433 C 282.233 211.409,281.397 211.263,272.723 217.178 C 228.292 247.477,172.142 262.950,119.719 259.339 C 53.208 254.759,11.279 223.739,5.584 174.900 C 4.710 167.402,4.823 167.629,3.261 170.206 M370.753 170.264 C 370.351 173.795,369.704 175.482,368.087 177.210 L 366.587 178.813 366.587 182.366 C 366.587 186.241,366.683 186.417,368.549 185.949 C 373.646 184.669,375.786 174.105,371.891 169.446 L 370.971 168.345 370.753 170.264 M29.257 304.114 C 14.565 306.248,6.238 315.263,6.255 329.017 C 6.270 340.533,11.826 347.591,23.319 350.692 C 27.443 351.804,43.899 351.797,44.943 350.682 C 45.040 350.578,46.649 339.745,46.576 339.682 C 46.547 339.657,45.012 339.981,43.165 340.404 C 30.197 343.372,21.652 339.525,20.885 330.375 C 19.877 318.347,29.948 311.783,44.604 314.916 C 46.187 315.255,47.510 315.504,47.544 315.471 C 47.577 315.438,47.446 313.014,47.252 310.083 L 46.900 304.755 45.752 304.576 C 40.812 303.803,32.915 303.582,29.257 304.114 M75.672 304.086 C 57.877 306.896,48.519 320.907,53.749 336.911 C 59.876 355.658,95.418 357.071,104.849 338.943 C 114.933 319.562,98.908 300.417,75.672 304.086 M135.464 304.086 C 117.669 306.896,108.311 320.907,113.541 336.911 C 119.668 355.658,155.210 357.071,164.642 338.943 C 174.725 319.562,158.700 300.417,135.464 304.086 M227.498 304.077 C 225.915 304.228,224.021 304.440,223.290 304.549 L 221.959 304.747 220.840 309.448 C 219.533 314.941,219.406 314.418,221.943 313.998 C 233.649 312.061,241.056 314.361,238.200 319.047 C 236.986 321.038,235.321 321.492,229.220 321.498 L 223.908 321.503 223.693 325.340 C 223.575 327.450,223.397 329.695,223.297 330.328 L 223.115 331.479 227.096 331.326 C 235.047 331.019,238.849 332.548,238.849 336.051 C 238.849 341.505,230.561 342.981,218.928 339.597 L 216.753 338.964 216.930 340.305 C 217.027 341.043,217.261 343.443,217.450 345.639 C 217.845 350.241,217.544 349.877,221.530 350.567 C 241.754 354.073,254.031 349.070,254.012 337.330 C 254.003 332.041,251.497 328.843,246.252 327.431 L 244.866 327.058 247.149 325.964 C 256.310 321.574,257.153 309.950,248.601 305.948 C 244.708 304.126,235.530 303.313,227.498 304.077 M322.644 304.083 C 311.386 306.466,305.814 315.229,305.874 330.456 C 305.906 338.589,307.277 342.756,311.221 346.709 C 319.540 355.046,336.633 352.551,342.073 342.205 C 348.574 329.841,346.570 312.137,338.055 306.693 C 334.453 304.390,327.087 303.143,322.644 304.083 M184.143 304.636 L 175.001 304.726 174.785 314.233 C 174.556 324.263,173.822 340.104,173.299 346.283 C 173.128 348.305,172.987 350.140,172.985 350.360 C 172.982 350.667,174.555 350.759,179.792 350.759 L 186.603 350.759 187.001 334.692 C 187.512 314.036,187.443 314.753,188.930 314.507 C 194.464 313.592,198.071 314.824,198.465 317.764 C 198.985 321.638,195.773 324.171,190.789 323.818 C 188.875 323.683,188.637 323.726,188.818 324.182 C 188.930 324.467,189.455 326.571,189.982 328.857 C 191.126 333.810,190.659 333.247,193.777 333.428 C 206.111 334.142,214.576 325.509,212.274 314.564 C 210.773 307.430,205.363 304.172,195.524 304.477 C 194.293 304.515,189.171 304.587,184.143 304.636 M274.883 306.555 C 262.649 322.473,258.647 335.229,263.204 343.780 C 268.776 354.232,291.020 354.424,297.928 344.078 C 304.563 334.143,299.904 321.925,289.169 321.110 C 284.887 320.785,284.991 320.715,281.767 326.071 L 278.936 330.775 280.738 330.775 C 284.251 330.775,286.427 333.158,286.070 336.614 C 285.428 342.843,277.568 343.712,275.607 337.772 C 273.830 332.388,279.722 320.720,290.530 308.217 L 293.557 304.716 284.926 304.716 L 276.296 304.716 274.883 306.555 M329.293 314.542 C 335.214 318.919,332.554 340.434,325.939 341.675 C 321.471 342.513,319.260 338.740,319.271 330.296 C 319.287 317.976,323.974 310.609,329.293 314.542 M83.933 314.422 C 90.524 316.179,94.138 322.718,92.726 330.332 C 89.925 345.439,68.419 344.950,67.236 329.753 C 66.446 319.608,74.757 311.977,83.933 314.422 M143.725 314.422 C 150.316 316.179,153.930 322.718,152.518 330.332 C 149.717 345.439,128.211 344.950,127.028 329.753 C 126.238 319.608,134.549 311.977,143.725 314.422 M85.498 372.848 C 78.747 374.455,78.140 386.940,84.688 389.502 C 87.050 390.426,91.285 389.545,92.204 387.938 C 92.555 387.323,93.033 387.957,93.041 389.049 C 93.044 389.473,93.242 389.768,93.525 389.768 C 93.929 389.768,94.005 389.058,94.005 385.292 L 94.005 380.815 90.647 380.815 C 87.503 380.815,87.290 380.856,87.290 381.455 C 87.290 382.044,87.503 382.094,90.008 382.094 L 92.726 382.094 92.726 383.432 C 92.726 389.737,84.164 390.744,82.028 384.691 C 79.120 376.448,87.819 369.518,92.380 376.444 C 93.403 377.997,94.448 378.087,93.945 376.579 C 92.938 373.561,89.284 371.947,85.498 372.848 M134.845 372.926 C 128.426 374.923,127.709 386.078,133.799 389.200 C 137.300 390.995,143.170 388.714,143.240 385.532 C 143.255 384.868,141.930 385.394,141.501 386.223 C 139.404 390.279,132.885 389.114,131.483 384.433 C 129.072 376.386,137.232 369.716,141.487 376.256 C 142.494 377.805,143.684 377.892,143.066 376.372 C 141.821 373.310,138.323 371.844,134.845 372.926 M230.662 372.848 C 223.911 374.455,223.304 386.940,229.852 389.502 C 232.214 390.426,236.449 389.545,237.367 387.938 C 237.719 387.323,238.197 387.957,238.205 389.049 C 238.207 389.473,238.406 389.768,238.689 389.768 C 239.093 389.768,239.169 389.058,239.169 385.292 L 239.169 380.815 235.811 380.815 C 232.667 380.815,232.454 380.856,232.454 381.455 C 232.454 382.044,232.667 382.094,235.172 382.094 L 237.890 382.094 237.890 383.432 C 237.890 389.737,229.328 390.744,227.192 384.691 C 224.284 376.448,232.983 369.518,237.544 376.444 C 238.566 377.997,239.612 378.087,239.109 376.579 C 238.102 373.561,234.448 371.947,230.662 372.848 M68.191 378.177 C 63.668 390.445,63.859 389.826,64.639 389.711 C 65.192 389.629,65.538 389.052,66.330 386.890 L 67.326 384.173 71.073 384.083 C 73.280 384.030,74.820 384.117,74.820 384.295 C 74.820 385.622,76.861 389.768,77.514 389.768 C 78.197 389.768,78.070 389.340,75.008 381.302 C 70.849 370.385,71.033 370.469,68.191 378.177 M98.481 381.295 L 98.481 389.768 103.917 389.768 C 109.139 389.768,109.353 389.743,109.353 389.129 C 109.353 388.519,109.139 388.489,104.716 388.489 L 100.080 388.489 100.080 384.972 L 100.080 381.455 104.396 381.455 C 108.500 381.455,108.713 381.423,108.713 380.815 C 108.713 380.207,108.500 380.176,104.396 380.176 L 100.080 380.176 100.080 377.138 L 100.080 374.101 104.556 374.101 C 108.820 374.101,109.033 374.070,109.033 373.461 C 109.033 372.848,108.820 372.822,103.757 372.822 L 98.481 372.822 98.481 381.295 M112.550 381.295 L 112.550 389.768 113.382 389.768 L 114.214 389.768 114.102 381.971 L 113.989 374.174 116.074 377.415 C 117.222 379.197,119.452 382.699,121.031 385.197 C 123.572 389.218,124.002 389.741,124.780 389.754 L 125.659 389.768 125.659 381.295 C 125.659 372.945,125.650 372.822,124.999 372.822 C 124.347 372.822,124.340 372.922,124.440 380.453 L 124.540 388.085 122.034 384.210 C 114.163 372.045,114.739 372.822,113.596 372.822 L 112.550 372.822 112.550 381.295 M146.763 381.295 L 146.763 389.768 147.562 389.768 L 148.361 389.768 148.361 381.295 L 148.361 372.822 147.562 372.822 L 146.763 372.822 146.763 381.295 M155.481 378.177 C 150.958 390.445,151.149 389.826,151.929 389.711 C 152.482 389.629,152.828 389.052,153.620 386.890 L 154.616 384.173 158.363 384.083 C 160.570 384.030,162.110 384.117,162.110 384.295 C 162.110 385.622,164.151 389.768,164.804 389.768 C 165.487 389.768,165.361 389.340,162.298 381.302 C 158.139 370.385,158.324 370.469,155.481 378.177 M174.900 381.295 L 174.900 389.768 175.699 389.768 L 176.499 389.768 176.499 381.295 L 176.499 372.822 175.699 372.822 L 174.900 372.822 174.900 381.295 M180.975 381.295 L 180.975 389.768 181.807 389.768 L 182.640 389.768 182.527 381.971 L 182.414 374.174 184.500 377.415 C 185.647 379.197,187.877 382.699,189.456 385.197 C 191.997 389.218,192.427 389.741,193.205 389.754 L 194.085 389.768 194.085 381.295 C 194.085 372.945,194.075 372.822,193.424 372.822 C 192.773 372.822,192.765 372.922,192.865 380.453 L 192.966 388.085 190.459 384.210 C 182.588 372.045,183.164 372.822,182.021 372.822 L 180.975 372.822 180.975 381.295 M196.962 373.461 C 196.962 374.053,197.176 374.101,199.840 374.101 L 202.718 374.101 202.718 381.934 C 202.718 389.555,202.735 389.768,203.357 389.768 C 203.979 389.768,203.997 389.555,203.997 381.934 L 203.997 374.101 206.875 374.101 C 209.539 374.101,209.752 374.053,209.752 373.461 C 209.752 372.843,209.539 372.822,203.357 372.822 C 197.176 372.822,196.962 372.843,196.962 373.461 M211.990 381.295 L 211.990 389.768 217.426 389.768 C 222.649 389.768,222.862 389.743,222.862 389.129 C 222.862 388.519,222.649 388.489,218.225 388.489 L 213.589 388.489 213.589 384.972 L 213.589 381.455 217.906 381.455 C 222.009 381.455,222.222 381.423,222.222 380.815 C 222.222 380.207,222.009 380.176,217.906 380.176 L 213.589 380.176 213.589 377.138 L 213.589 374.101 218.066 374.101 C 222.329 374.101,222.542 374.070,222.542 373.461 C 222.542 372.848,222.329 372.822,217.266 372.822 L 211.990 372.822 211.990 381.295 M243.645 381.295 L 243.645 389.768 244.444 389.768 L 245.244 389.768 245.244 385.771 L 245.244 381.775 247.812 381.775 C 252.271 381.775,253.235 382.551,253.242 386.150 C 253.247 388.991,253.470 389.768,254.278 389.768 C 256.030 389.768,254.566 382.558,252.612 381.568 C 251.897 381.205,251.896 381.198,252.548 380.991 C 254.795 380.278,255.664 376.412,254.016 374.454 C 252.926 373.158,251.544 372.826,247.242 372.824 L 243.645 372.822 243.645 381.295 M261.956 378.177 C 257.433 390.445,257.624 389.826,258.404 389.711 C 258.957 389.629,259.303 389.052,260.095 386.890 L 261.091 384.173 264.838 384.083 C 267.045 384.030,268.585 384.117,268.585 384.295 C 268.585 385.622,270.626 389.768,271.279 389.768 C 271.962 389.768,271.835 389.340,268.773 381.302 C 264.614 370.385,264.798 370.469,261.956 378.177 M274.660 381.303 L 274.660 389.784 279.852 389.696 C 284.502 389.617,285.055 389.550,285.151 389.049 C 285.249 388.537,284.872 388.489,280.759 388.489 L 276.259 388.489 276.259 380.655 L 276.259 372.822 275.460 372.822 L 274.660 372.822 274.660 381.303 M252.786 375.158 C 255.174 377.936,253.320 380.294,248.629 380.445 L 245.244 380.554 245.244 377.298 L 245.244 374.043 248.629 374.152 C 251.882 374.256,252.045 374.296,252.786 375.158 M71.872 376.659 C 72.229 377.626,72.887 379.388,73.336 380.576 L 74.152 382.734 71.016 382.734 L 67.879 382.734 69.342 378.584 C 70.147 376.302,70.899 374.539,71.015 374.667 C 71.130 374.795,71.516 375.691,71.872 376.659 M159.162 376.659 C 159.519 377.626,160.178 379.388,160.626 380.576 L 161.442 382.734 158.306 382.734 L 155.170 382.734 156.632 378.584 C 157.437 376.302,158.190 374.539,158.305 374.667 C 158.420 374.795,158.806 375.691,159.162 376.659 M265.637 376.659 C 265.994 377.626,266.652 379.388,267.101 380.576 L 267.917 382.734 264.781 382.734 L 261.644 382.734 263.107 378.584 C 263.912 376.302,264.664 374.539,264.780 374.667 C 264.895 374.795,265.281 375.691,265.637 376.659 " stroke="none" fill="#1e5ca3" fill-rule="evenodd"></path><path id="path1" d="M119.059 50.685 C 118.155 50.929,115.205 52.278,112.505 53.682 C 97.295 61.593,82.764 66.120,65.699 68.261 C 54.978 69.607,54.304 70.389,53.376 82.560 C 49.878 128.424,68.071 175.083,100.587 203.641 C 117.190 218.223,122.078 220.102,129.816 214.879 C 158.900 195.245,179.761 159.007,184.781 119.396 C 186.241 107.878,186.608 78.174,185.332 74.821 C 184.057 71.470,181.998 70.295,175.210 69.044 C 160.531 66.337,149.712 62.552,133.562 54.471 C 124.951 50.161,122.944 49.638,119.059 50.685 M152.678 96.841 C 157.661 99.115,164.087 106.203,163.535 108.816 C 163.072 111.006,162.761 111.345,130.022 145.408 C 117.181 158.768,116.549 159.205,113.172 157.044 C 111.947 156.260,97.339 142.405,88.841 133.969 C 84.203 129.365,84.277 128.116,89.487 122.999 C 95.054 117.532,96.225 117.824,106.063 127.126 C 113.256 133.927,113.832 133.896,120.661 126.341 C 149.603 94.320,148.792 95.067,152.678 96.841 M35.992 112.598 C 32.056 116.850,28.877 122.369,24.694 132.214 C 3.120 182.984,31.709 228.277,93.686 241.521 C 109.982 245.003,139.454 247.547,141.032 245.608 C 142.005 244.413,141.807 244.180,139.009 243.221 C 79.615 222.878,45.007 178.415,38.671 114.309 C 38.463 112.198,38.256 110.430,38.212 110.380 C 38.168 110.329,37.169 111.327,35.992 112.598 " stroke="none" fill="#e31444" fill-rule="evenodd"></path><path id="path2" d="M206.715 0.321 C 183.948 1.509,162.192 6.213,143.086 14.079 C 137.201 16.502,123.218 23.546,122.632 24.384 C 121.552 25.926,122.482 27.755,124.682 28.414 C 125.399 28.629,132.567 31.763,140.611 35.378 C 164.014 45.898,183.849 54.693,186.049 55.527 C 192.284 57.889,193.205 57.542,201.369 49.766 C 211.873 39.760,224.920 34.220,231.317 37.049 C 236.493 39.339,237.273 33.347,232.520 27.795 C 229.675 24.470,232.176 24.624,180.517 24.594 L 135.731 24.568 140.368 23.503 C 142.918 22.917,147.738 21.709,151.079 20.818 C 215.391 3.677,270.707 13.914,304.471 49.206 C 323.333 68.921,331.875 97.474,328.056 128.049 C 327.228 134.684,327.811 135.732,332.755 136.495 C 339.702 137.568,347.873 136.118,350.099 133.418 C 353.317 129.514,352.309 106.744,348.199 90.488 C 334.202 35.120,274.083 -3.194,206.715 0.321 M272.080 49.977 C 261.564 52.960,259.968 68.006,269.695 72.459 C 273.633 74.262,277.304 74.152,281.361 72.110 C 286.767 69.389,288.932 70.151,291.763 75.772 C 296.699 85.574,292.765 109.728,283.378 127.248 C 268.017 155.919,249.053 164.712,234.371 149.970 C 220.800 136.345,213.167 117.093,213.195 96.563 C 213.218 80.272,215.358 74.492,223.092 69.835 C 225.903 68.142,227.538 68.415,230.536 71.075 C 240.357 79.791,255.924 69.430,250.572 57.739 C 246.996 49.927,238.612 48.081,231.515 53.541 C 228.847 55.594,225.437 57.359,221.920 58.508 C 210.875 62.115,204.208 69.888,201.950 81.789 C 198.653 99.166,199.659 118.629,204.762 136.231 C 210.881 157.335,218.711 168.667,232.257 176.022 C 238.886 179.622,239.837 183.311,236.133 191.047 C 229.159 205.613,209.570 222.349,180.416 238.651 C 178.613 239.659,177.138 240.570,177.138 240.675 C 177.138 240.985,186.282 240.483,189.788 239.981 C 220.260 235.621,243.984 218.411,255.984 191.960 C 261.002 180.899,261.825 179.744,271.746 169.856 C 293.962 147.715,303.667 126.307,306.351 93.525 C 307.673 77.373,304.172 69.764,289.925 57.831 C 280.631 50.045,277.185 48.529,272.080 49.977 M232.626 69.770 C 232.731 69.874,232.679 70.045,232.512 70.148 C 232.344 70.252,232.039 70.134,231.833 69.886 C 231.453 69.428,232.178 69.321,232.626 69.770 M263.096 155.282 C 263.038 155.425,262.802 155.569,262.572 155.603 C 262.244 155.651,262.237 155.565,262.538 155.202 C 262.921 154.740,263.297 154.794,263.096 155.282 M217.053 216.673 C 216.994 216.816,216.759 216.960,216.529 216.994 C 216.201 217.042,216.193 216.956,216.495 216.593 C 216.878 216.131,217.254 216.185,217.053 216.673 " stroke="none" fill="#85bb3f" fill-rule="evenodd"></path><path id="path3" d="M0.029 90.248 C 0.054 168.665,0.116 180.171,0.505 178.018 C 1.077 174.855,1.960 172.352,3.261 170.206 C 4.823 167.629,4.710 167.402,5.584 174.900 C 11.279 223.739,53.208 254.759,119.719 259.339 C 172.142 262.950,228.292 247.477,272.723 217.178 C 281.397 211.263,282.233 211.409,285.655 219.433 C 289.067 227.429,292.683 231.627,298.901 234.807 C 304.140 237.487,304.163 237.414,296.483 242.487 C 243.557 277.438,174.786 293.203,110.791 285.053 C 49.647 277.265,5.781 242.916,0.665 198.818 C 0.475 197.182,0.269 195.412,0.208 194.884 C 0.146 194.357,0.074 239.428,0.048 295.044 L 0.000 396.163 200.000 396.163 L 400.000 396.163 399.992 265.308 L 399.985 134.452 399.260 136.211 C 396.706 142.411,379.423 160.563,365.787 171.366 C 361.921 174.430,361.830 174.543,362.291 175.754 C 363.485 178.891,365.873 196.501,366.728 208.473 C 366.910 211.023,367.151 214.192,367.263 215.515 C 367.532 218.678,365.113 221.382,359.280 224.439 C 355.535 226.402,355.538 226.404,352.707 218.030 C 347.261 201.918,342.233 190.568,340.542 190.568 C 339.527 190.568,318.485 204.287,318.289 205.076 C 318.196 205.450,318.085 207.194,318.043 208.953 C 317.997 210.859,317.582 214.152,317.017 217.106 L 316.067 222.062 313.785 224.334 C 309.071 229.028,307.532 229.012,307.239 224.267 C 307.131 222.527,306.600 219.128,306.058 216.714 C 303.997 207.530,303.073 206.909,288.569 204.954 C 279.263 203.699,279.037 203.525,282.968 200.646 C 287.520 197.312,291.858 196.199,305.439 194.882 L 307.601 194.673 316.630 186.983 C 321.596 182.753,325.851 179.115,326.085 178.897 C 326.834 178.202,320.609 175.584,305.630 170.296 C 293.779 166.112,288.371 163.985,288.511 163.564 C 288.571 163.383,290.056 162.370,291.809 161.313 C 293.563 160.257,295.997 158.635,297.219 157.709 C 300.224 155.431,301.942 154.950,306.290 155.168 C 312.562 155.483,334.080 157.860,340.215 158.916 C 348.479 160.339,349.174 160.090,358.913 152.204 C 382.961 132.732,392.768 127.105,398.002 129.776 C 398.731 130.147,399.473 130.704,399.653 131.013 C 399.877 131.397,399.984 110.798,399.990 65.787 L 400.000 0.000 309.592 0.064 C 259.868 0.098,220.264 0.167,221.583 0.216 C 279.824 2.364,330.549 36.205,346.107 83.293 C 351.786 100.479,354.029 128.650,350.099 133.418 C 347.873 136.118,339.702 137.568,332.755 136.495 C 327.811 135.732,327.228 134.684,328.056 128.049 C 331.875 97.474,323.333 68.921,304.471 49.206 C 270.707 13.914,215.391 3.677,151.079 20.818 C 147.738 21.709,142.918 22.917,140.368 23.503 L 135.731 24.568 180.517 24.594 C 232.176 24.624,229.675 24.470,232.520 27.795 C 237.273 33.347,236.493 39.339,231.317 37.049 C 224.920 34.220,211.873 39.760,201.369 49.766 C 193.205 57.542,192.284 57.889,186.049 55.527 C 183.849 54.693,164.014 45.898,140.611 35.378 C 132.567 31.763,125.399 28.629,124.682 28.414 C 122.482 27.755,121.552 25.926,122.632 24.384 C 123.218 23.546,137.201 16.502,143.086 14.079 C 162.217 6.202,184.408 1.412,206.715 0.343 C 209.528 0.208,164.169 0.075,105.915 0.049 L 0.000 0.000 0.029 90.248 M279.456 50.385 C 284.139 52.223,297.327 63.515,300.849 68.700 C 305.682 75.818,307.229 82.797,306.351 93.525 C 303.667 126.307,293.962 147.715,271.746 169.856 C 261.825 179.744,261.002 180.899,255.984 191.960 C 243.984 218.411,220.260 235.621,189.788 239.981 C 186.282 240.483,177.138 240.985,177.138 240.675 C 177.138 240.570,178.613 239.659,180.416 238.651 C 209.570 222.349,229.159 205.613,236.133 191.047 C 239.837 183.311,238.886 179.622,232.257 176.022 C 218.711 168.667,210.881 157.335,204.762 136.231 C 199.659 118.629,198.653 99.166,201.950 81.789 C 204.208 69.888,210.875 62.115,221.920 58.508 C 225.437 57.359,228.847 55.594,231.515 53.541 C 238.612 48.081,246.996 49.927,250.572 57.739 C 255.924 69.430,240.357 79.791,230.536 71.075 C 227.538 68.415,225.903 68.142,223.092 69.835 C 215.358 74.492,213.218 80.272,213.195 96.563 C 213.170 115.022,218.902 131.435,230.236 145.357 C 245.571 164.195,261.433 160.753,278.756 134.828 C 291.475 115.795,297.695 87.551,291.763 75.772 C 288.932 70.151,286.767 69.389,281.361 72.110 C 272.520 76.560,263.306 71.333,263.311 61.871 C 263.316 53.169,271.578 47.291,279.456 50.385 M125.102 50.673 C 126.100 50.933,129.907 52.642,133.562 54.471 C 149.712 62.552,160.531 66.337,175.210 69.044 C 181.998 70.295,184.057 71.470,185.332 74.821 C 186.608 78.174,186.241 107.878,184.781 119.396 C 179.761 159.007,158.900 195.245,129.816 214.879 C 122.078 220.102,117.190 218.223,100.587 203.641 C 68.071 175.083,49.878 128.424,53.376 82.560 C 54.304 70.389,54.978 69.607,65.699 68.261 C 82.764 66.120,97.295 61.593,112.505 53.682 C 119.230 50.184,121.315 49.686,125.102 50.673 M148.459 96.761 C 146.949 97.506,141.044 103.789,120.661 126.341 C 113.832 133.896,113.256 133.927,106.063 127.126 C 96.225 117.824,95.054 117.532,89.487 122.999 C 84.277 128.116,84.203 129.365,88.841 133.969 C 97.339 142.405,111.947 156.260,113.172 157.044 C 116.989 159.487,114.503 161.691,151.107 123.413 C 165.681 108.173,165.296 108.949,160.965 103.552 C 156.864 98.441,151.243 95.389,148.459 96.761 M38.671 114.309 C 45.007 178.415,79.615 222.878,139.009 243.221 C 141.807 244.180,142.005 244.413,141.032 245.608 C 139.454 247.547,109.982 245.003,93.686 241.521 C 52.407 232.700,25.341 209.904,19.036 178.647 C 15.490 161.071,18.395 144.246,28.480 123.946 C 31.141 118.589,37.564 109.635,38.212 110.380 C 38.256 110.430,38.463 112.198,38.671 114.309 M357.079 147.150 C 358.399 147.781,358.340 148.700,356.919 149.625 C 348.116 155.359,347.999 155.401,343.680 154.381 C 339.933 153.496,339.995 153.693,342.686 151.244 C 347.494 146.867,353.131 145.264,357.079 147.150 M197.076 168.206 C 197.538 168.570,199.375 171.018,201.159 173.648 C 206.881 182.087,211.355 186.826,217.287 190.732 C 221.909 193.776,221.658 194.649,213.936 202.371 C 196.231 220.076,175.209 228.911,150.440 229.057 C 143.278 229.099,142.326 228.964,139.009 227.431 C 136.673 226.351,136.565 226.541,140.771 224.331 C 166.141 211.003,178.910 198.328,190.724 174.747 C 194.423 167.364,195.108 166.659,197.076 168.206 M373.376 172.164 C 375.181 177.332,372.512 184.954,368.549 185.949 C 366.683 186.417,366.587 186.241,366.587 182.366 L 366.587 178.813 368.087 177.210 C 369.704 175.482,370.351 173.795,370.753 170.264 L 370.971 168.345 371.891 169.446 C 372.397 170.051,373.065 171.274,373.376 172.164 M41.087 304.077 C 43.022 304.253,45.121 304.477,45.752 304.576 L 46.900 304.755 47.252 310.083 C 47.446 313.014,47.577 315.438,47.544 315.471 C 47.510 315.504,46.187 315.255,44.604 314.916 C 29.948 311.783,19.877 318.347,20.885 330.375 C 21.652 339.525,30.197 343.372,43.165 340.404 C 45.012 339.981,46.547 339.657,46.576 339.682 C 46.649 339.745,45.040 350.578,44.943 350.682 C 43.899 351.797,27.443 351.804,23.319 350.692 C 11.826 347.591,6.270 340.533,6.255 329.017 C 6.233 311.524,19.386 302.107,41.087 304.077 M90.008 304.846 C 105.522 308.822,112.354 324.518,104.849 338.943 C 95.418 357.071,59.876 355.658,53.749 336.911 C 46.927 316.036,66.417 298.800,90.008 304.846 M149.800 304.846 C 165.314 308.822,172.146 324.518,164.642 338.943 C 155.210 357.071,119.668 355.658,113.541 336.911 C 106.719 316.036,126.209 298.800,149.800 304.846 M244.416 304.532 C 256.636 307.255,258.338 320.602,247.149 325.964 L 244.866 327.058 246.252 327.431 C 251.497 328.843,254.003 332.041,254.012 337.330 C 254.031 349.070,241.754 354.073,221.530 350.567 C 217.544 349.877,217.845 350.241,217.450 345.639 C 217.261 343.443,217.027 341.043,216.930 340.305 L 216.753 338.964 218.928 339.597 C 230.561 342.981,238.849 341.505,238.849 336.051 C 238.849 332.548,235.047 331.019,227.096 331.326 L 223.115 331.479 223.297 330.328 C 223.397 329.695,223.575 327.450,223.693 325.340 L 223.908 321.503 229.220 321.498 C 235.321 321.492,236.986 321.038,238.200 319.047 C 241.056 314.361,233.649 312.061,221.943 313.998 C 219.406 314.418,219.533 314.941,220.840 309.448 L 221.959 304.747 223.290 304.549 C 229.158 303.677,240.538 303.668,244.416 304.532 M333.976 304.864 C 344.739 308.465,349.035 322.828,343.880 337.983 C 339.833 349.884,326.956 355.166,315.387 349.672 C 306.360 345.385,303.038 331.371,307.758 317.493 C 311.554 306.334,322.544 301.040,333.976 304.864 M200.778 304.725 C 208.181 305.505,212.630 310.412,212.630 317.798 C 212.630 327.533,204.753 334.063,193.777 333.428 C 190.659 333.247,191.126 333.810,189.982 328.857 C 189.455 326.571,188.930 324.467,188.818 324.182 C 188.637 323.726,188.875 323.683,190.789 323.818 C 195.773 324.171,198.985 321.638,198.465 317.764 C 198.071 314.824,194.464 313.592,188.930 314.507 C 187.443 314.753,187.512 314.036,187.001 334.692 L 186.603 350.759 179.792 350.759 C 174.555 350.759,172.982 350.667,172.985 350.360 C 172.987 350.140,173.128 348.305,173.299 346.283 C 173.822 340.104,174.556 324.263,174.785 314.233 L 175.001 304.726 184.143 304.636 C 189.171 304.587,194.293 304.515,195.524 304.477 C 196.755 304.439,199.119 304.551,200.778 304.725 M290.530 308.217 C 279.722 320.720,273.830 332.388,275.607 337.772 C 277.568 343.712,285.428 342.843,286.070 336.614 C 286.427 333.158,284.251 330.775,280.738 330.775 L 278.936 330.775 281.767 326.071 C 284.991 320.715,284.887 320.785,289.169 321.110 C 296.682 321.681,300.680 326.249,300.703 334.293 C 300.734 345.268,293.502 351.459,280.576 351.523 C 257.304 351.638,254.890 332.568,274.883 306.555 L 276.296 304.716 284.926 304.716 L 293.557 304.716 290.530 308.217 M324.700 314.105 C 319.269 316.628,316.970 334.642,321.394 340.008 C 324.838 344.187,329.539 341.343,331.444 333.929 C 334.526 321.938,330.884 311.232,324.700 314.105 M77.058 314.446 C 65.852 317.564,63.430 334.539,73.441 339.794 C 80.265 343.377,88.015 341.009,91.284 334.343 C 96.811 323.074,88.388 311.294,77.058 314.446 M136.851 314.446 C 125.644 317.564,123.222 334.539,133.233 339.794 C 140.058 343.377,147.808 341.009,151.077 334.343 C 156.603 323.074,148.181 311.294,136.851 314.446 M91.075 373.279 C 93.000 374.285,95.034 377.618,93.722 377.618 C 93.409 377.618,92.805 377.090,92.380 376.444 C 87.819 369.518,79.120 376.448,82.028 384.691 C 84.164 390.744,92.726 389.737,92.726 383.432 L 92.726 382.094 90.008 382.094 C 87.503 382.094,87.290 382.044,87.290 381.455 C 87.290 380.856,87.503 380.815,90.647 380.815 L 94.005 380.815 94.005 385.292 C 94.005 389.058,93.929 389.768,93.525 389.768 C 93.242 389.768,93.044 389.473,93.041 389.049 C 93.033 387.957,92.555 387.323,92.204 387.938 C 90.149 391.533,82.773 390.034,80.807 385.622 C 77.474 378.145,84.416 369.800,91.075 373.279 M139.199 372.847 C 141.407 373.460,144.879 377.795,142.830 377.381 C 142.443 377.303,141.839 376.797,141.487 376.256 C 137.232 369.716,129.072 376.386,131.483 384.433 C 132.885 389.114,139.404 390.279,141.501 386.223 C 141.930 385.394,143.255 384.868,143.240 385.532 C 143.170 388.714,137.300 390.995,133.799 389.200 C 125.468 384.929,130.277 370.369,139.199 372.847 M236.239 373.279 C 238.164 374.285,240.197 377.618,238.886 377.618 C 238.573 377.618,237.969 377.090,237.544 376.444 C 232.983 369.518,224.284 376.448,227.192 384.691 C 229.328 390.744,237.890 389.737,237.890 383.432 L 237.890 382.094 235.172 382.094 C 232.667 382.094,232.454 382.044,232.454 381.455 C 232.454 380.856,232.667 380.815,235.811 380.815 L 239.169 380.815 239.169 385.292 C 239.169 389.058,239.093 389.768,238.689 389.768 C 238.406 389.768,238.207 389.473,238.205 389.049 C 238.197 387.957,237.719 387.323,237.367 387.938 C 235.313 391.533,227.937 390.034,225.971 385.622 C 222.638 378.145,229.580 369.800,236.239 373.279 M75.008 381.302 C 78.070 389.340,78.197 389.768,77.514 389.768 C 76.861 389.768,74.820 385.622,74.820 384.295 C 74.820 384.117,73.280 384.030,71.073 384.083 L 67.326 384.173 66.330 386.890 C 65.538 389.052,65.192 389.629,64.639 389.711 C 63.859 389.826,63.668 390.445,68.191 378.177 C 71.033 370.469,70.849 370.385,75.008 381.302 M109.033 373.461 C 109.033 374.070,108.820 374.101,104.556 374.101 L 100.080 374.101 100.080 377.138 L 100.080 380.176 104.396 380.176 C 108.500 380.176,108.713 380.207,108.713 380.815 C 108.713 381.423,108.500 381.455,104.396 381.455 L 100.080 381.455 100.080 384.972 L 100.080 388.489 104.716 388.489 C 109.139 388.489,109.353 388.519,109.353 389.129 C 109.353 389.743,109.139 389.768,103.917 389.768 L 98.481 389.768 98.481 381.295 L 98.481 372.822 103.757 372.822 C 108.820 372.822,109.033 372.848,109.033 373.461 M117.084 376.579 C 118.428 378.645,120.655 382.079,122.034 384.210 L 124.540 388.085 124.440 380.453 C 124.340 372.922,124.347 372.822,124.999 372.822 C 125.650 372.822,125.659 372.945,125.659 381.295 L 125.659 389.768 124.780 389.754 C 124.002 389.741,123.572 389.218,121.031 385.197 C 119.452 382.699,117.222 379.197,116.074 377.415 L 113.989 374.174 114.102 381.971 L 114.214 389.768 113.382 389.768 L 112.550 389.768 112.550 381.295 L 112.550 372.822 113.596 372.822 C 114.579 372.822,114.788 373.046,117.084 376.579 M148.361 381.295 L 148.361 389.768 147.562 389.768 L 146.763 389.768 146.763 381.295 L 146.763 372.822 147.562 372.822 L 148.361 372.822 148.361 381.295 M162.298 381.302 C 165.361 389.340,165.487 389.768,164.804 389.768 C 164.151 389.768,162.110 385.622,162.110 384.295 C 162.110 384.117,160.570 384.030,158.363 384.083 L 154.616 384.173 153.620 386.890 C 152.828 389.052,152.482 389.629,151.929 389.711 C 151.149 389.826,150.958 390.445,155.481 378.177 C 158.324 370.469,158.139 370.385,162.298 381.302 M176.499 381.295 L 176.499 389.768 175.699 389.768 L 174.900 389.768 174.900 381.295 L 174.900 372.822 175.699 372.822 L 176.499 372.822 176.499 381.295 M185.510 376.579 C 186.853 378.645,189.080 382.079,190.459 384.210 L 192.966 388.085 192.865 380.453 C 192.765 372.922,192.773 372.822,193.424 372.822 C 194.075 372.822,194.085 372.945,194.085 381.295 L 194.085 389.768 193.205 389.754 C 192.427 389.741,191.997 389.218,189.456 385.197 C 187.877 382.699,185.647 379.197,184.500 377.415 L 182.414 374.174 182.527 381.971 L 182.640 389.768 181.807 389.768 L 180.975 389.768 180.975 381.295 L 180.975 372.822 182.021 372.822 C 183.005 372.822,183.213 373.046,185.510 376.579 M209.752 373.461 C 209.752 374.053,209.539 374.101,206.875 374.101 L 203.997 374.101 203.997 381.934 C 203.997 389.555,203.979 389.768,203.357 389.768 C 202.735 389.768,202.718 389.555,202.718 381.934 L 202.718 374.101 199.840 374.101 C 197.176 374.101,196.962 374.053,196.962 373.461 C 196.962 372.843,197.176 372.822,203.357 372.822 C 209.539 372.822,209.752 372.843,209.752 373.461 M222.542 373.461 C 222.542 374.070,222.329 374.101,218.066 374.101 L 213.589 374.101 213.589 377.138 L 213.589 380.176 217.906 380.176 C 222.009 380.176,222.222 380.207,222.222 380.815 C 222.222 381.423,222.009 381.455,217.906 381.455 L 213.589 381.455 213.589 384.972 L 213.589 388.489 218.225 388.489 C 222.649 388.489,222.862 388.519,222.862 389.129 C 222.862 389.743,222.649 389.768,217.426 389.768 L 211.990 389.768 211.990 381.295 L 211.990 372.822 217.266 372.822 C 222.329 372.822,222.542 372.848,222.542 373.461 M252.018 373.153 C 255.514 374.124,255.907 379.925,252.548 380.991 C 251.896 381.198,251.897 381.205,252.612 381.568 C 254.566 382.558,256.030 389.768,254.278 389.768 C 253.470 389.768,253.247 388.991,253.242 386.150 C 253.235 382.551,252.271 381.775,247.812 381.775 L 245.244 381.775 245.244 385.771 L 245.244 389.768 244.444 389.768 L 243.645 389.768 243.645 381.295 L 243.645 372.822 247.242 372.824 C 249.221 372.825,251.370 372.973,252.018 373.153 M268.773 381.302 C 271.835 389.340,271.962 389.768,271.279 389.768 C 270.626 389.768,268.585 385.622,268.585 384.295 C 268.585 384.117,267.045 384.030,264.838 384.083 L 261.091 384.173 260.095 386.890 C 259.303 389.052,258.957 389.629,258.404 389.711 C 257.624 389.826,257.433 390.445,261.956 378.177 C 264.798 370.469,264.614 370.385,268.773 381.302 M276.259 380.655 L 276.259 388.489 280.759 388.489 C 284.872 388.489,285.249 388.537,285.151 389.049 C 285.055 389.550,284.502 389.617,279.852 389.696 L 274.660 389.784 274.660 381.303 L 274.660 372.822 275.460 372.822 L 276.259 372.822 276.259 380.655 M245.244 377.298 L 245.244 380.554 248.629 380.445 C 252.597 380.317,253.557 379.704,253.557 377.298 C 253.557 374.893,252.597 374.279,248.629 374.152 L 245.244 374.043 245.244 377.298 M69.342 378.584 L 67.879 382.734 71.016 382.734 L 74.152 382.734 73.336 380.576 C 72.887 379.388,72.229 377.626,71.872 376.659 C 71.516 375.691,71.130 374.795,71.015 374.667 C 70.899 374.539,70.147 376.302,69.342 378.584 M156.632 378.584 L 155.170 382.734 158.306 382.734 L 161.442 382.734 160.626 380.576 C 160.178 379.388,159.519 377.626,159.162 376.659 C 158.806 375.691,158.420 374.795,158.305 374.667 C 158.190 374.539,157.437 376.302,156.632 378.584 M263.107 378.584 L 261.644 382.734 264.781 382.734 L 267.917 382.734 267.101 380.576 C 266.652 379.388,265.994 377.626,265.637 376.659 C 265.281 375.691,264.895 374.795,264.780 374.667 C 264.664 374.539,263.912 376.302,263.107 378.584 " stroke="none" fill="#f4f4f4" fill-rule="evenodd"></path><path id="path4" d="M231.833 69.886 C 232.039 70.134,232.344 70.252,232.512 70.148 C 232.884 69.918,232.607 69.604,231.947 69.507 C 231.562 69.451,231.538 69.531,231.833 69.886 M262.538 155.202 C 262.237 155.565,262.244 155.651,262.572 155.603 C 263.014 155.538,263.299 155.119,263.062 154.882 C 262.984 154.804,262.748 154.948,262.538 155.202 M216.495 216.593 C 216.193 216.956,216.201 217.042,216.529 216.994 C 216.971 216.929,217.256 216.509,217.019 216.273 C 216.941 216.195,216.705 216.339,216.495 216.593 " stroke="none" fill="#7cba38" fill-rule="evenodd"></path></g></svg>